<svg xmlns="http://www.w3.org/2000/svg" width="216.955" height="70.172"><g fill="#926953" transform="translate(-116.421 -481.677)"><path d="M142.472 486.837v33.16c0 1.672.53 2.672 1.591 2.998.693.163 1.04.306 1.04.428v.367h-9.422v-.428c0-.122.347-.245 1.04-.367 1.02-.326 1.53-1.326 1.53-2.998v-28.266l-5.812 31.937h-1.774l-6.179-31.08v27.409c0 1.713.53 2.712 1.591 2.998.653.204.979.347.979.428v.367h-9.361v-.367c0-.163.367-.306 1.101-.428.979-.286 1.468-1.285 1.468-2.998v-13.888c0-.938-.428-1.672-1.285-2.203-.857-.53-1.285-1.264-1.285-2.203 0-.122.082-.163.245-.122.245.122.387.184.428.184.979 0 1.57-.326 1.774-.979.082-.245.122-1.02.122-2.325v-11.624c0-1.631-.551-2.61-1.652-2.937l-.857-.122c0-.163-.041-.367-.122-.612h12.175c-.163.082-.163.245 0 .489-.571.245-1.081.714-1.53 1.407-.449.693-.612 1.407-.489 2.141l3.854 18.293 3.61-18.293c.082-.408.122-.775.122-1.101 0-.775-.224-1.346-.673-1.713-.367-.204-.755-.408-1.162-.612v-.612h11.563v.551c0-.041-.306.02-.918.184-1.142.326-1.713 1.305-1.713 2.937"/><path d="M161.54 520.059c0 1.672.571 2.672 1.713 2.998.122.041.285.163.489.367.245.204.367.347.367.428 0-.082-.367-.122-1.101-.122l-4.956.122c-.041 0-.061-.816-.061-2.447-1.55 1.754-3.12 2.631-4.711 2.631-1.428 0-2.651-.571-3.671-1.713-1.02-1.183-1.53-2.835-1.53-4.956 0-1.917.632-3.61 1.897-5.078.449-.53 1.672-1.591 3.671-3.181 1.428-1.142 2.243-2.182 2.447-3.12-.082-.122-.428-.347-1.04-.673-.449-.245-.673-.612-.673-1.101 0-.734.408-1.101 1.224-1.101 1.142 0 1.713 1.02 1.713 3.059 0 1.264-.897 2.978-2.692 5.139-1.795 2.121-2.692 4.12-2.692 5.996 0 .816.224 1.53.673 2.141.449.612 1.04.918 1.774.918 2.284 0 3.426-2.427 3.426-7.281v-6.975c0-.082.02-.326.061-.734.041-.408.061-.775.061-1.101 0-2.692-.897-4.038-2.692-4.038-.653 0-1.264.326-1.835.979-.571.612-.857 1.326-.857 2.141 0 .979.51 2.203 1.53 3.671-.286.326-.673.489-1.162.489-1.06 0-1.917-.469-2.57-1.407-.612-.979-.918-2.141-.918-3.487 0-1.754.551-3.141 1.652-4.16 1.101-1.06 2.529-1.591 4.283-1.591 4.12 0 6.179 2.406 6.179 7.219v15.968"/><path d="M174.345 513.512l-2.692 6.608c-.286.653-.428 1.183-.428 1.591 0 .693.408 1.142 1.224 1.346.571.163.857.326.857.489 0 .122-.367.184-1.101.184h-6.424c-.693 0-1.04-.061-1.04-.184 0-.204.286-.367.857-.489 1.02-.286 1.876-1.264 2.57-2.937l4.527-10.951c-.571-1.509-1.632-4.303-3.181-8.382-.612-1.631-1.489-2.61-2.631-2.937-.571-.163-.857-.326-.857-.489 0-.122.367-.184 1.101-.184h5.751c.734 0 1.101.061 1.101.184 0 .163-.286.326-.857.489-.571.122-.857.408-.857.857 0 .286.224.979.673 2.08l1.53 3.977 1.652-3.977c.408-1.06.612-1.754.612-2.08 0-.408-.286-.693-.857-.857-.53-.163-.795-.326-.795-.489 0-.122.367-.184 1.101-.184h5.751c.734 0 1.101.061 1.101.184 0 .204-.306.367-.918.489-1.02.286-1.856 1.264-2.508 2.937l-3.487 8.382c.734 1.958 2.141 5.608 4.222 10.951.612 1.672 1.468 2.651 2.57 2.937.571.163.857.326.857.489 0 .122-.347.184-1.04.184h-6.485c-.734 0-1.101-.061-1.101-.184 0-.163.306-.326.918-.489.775-.204 1.162-.653 1.162-1.346 0-.408-.122-.938-.367-1.591l-2.508-6.608"/><path d="M216.786 483.656c-2.08 3.752-4.181 7.954-6.302 12.603-3.181 6.975-4.772 11.686-4.772 14.133l.428.857c1.224-.082 1.835.387 1.835 1.407 0 1.224-.612 1.835-1.835 1.835-.734 0-1.326-.469-1.774-1.407-.367-.775-.551-1.57-.551-2.386 0-2.488.959-6.016 2.876-10.584 1.958-4.609 2.937-8.076 2.937-10.401 0-.775-.184-1.448-.551-2.019-.408-.734-.979-1.101-1.713-1.101-1.958 0-3.447 2.978-4.466 8.932-.734 4.038-1.101 7.709-1.101 11.013 0 2.896.224 5.445.673 7.648.775 3.752 2.121 5.629 4.038 5.629 1.468 0 2.61-.816 3.426-2.447.612-1.264.918-2.733.918-4.405 0-1.264-.286-2.508-.857-3.732-.571-1.264-1.366-2.162-2.386-2.692l1.53-.551c1.999 0 3.528.836 4.589 2.508.857 1.387 1.285 3.141 1.285 5.262 0 3.018-.632 5.466-1.897 7.342-1.509 2.203-3.691 3.304-6.546 3.304-6.118 0-9.177-6.648-9.177-19.945 0-4.813.591-9.177 1.774-13.093 1.754-5.792 4.507-8.688 8.259-8.688.938 0 2.162.326 3.671.979 1.55.612 2.631.918 3.243.918.082 0 .897-.306 2.447-.918"/><path d="M227.893 500.848c0-1.631-.571-2.61-1.713-2.937-.571-.163-.857-.326-.857-.489 0-.122.367-.184 1.101-.184h6.975c.734 0 1.101.061 1.101.184 0 .163-.306.326-.918.489-1.142.326-1.713 1.305-1.713 2.937v19.395c0 1.632.571 2.59 1.713 2.876.612.204.918.367.918.489 0 .163-.367.245-1.101.245h-5.506v-1.407c-1.101 1.101-2.406 1.652-3.916 1.652-3.712 0-5.568-2.753-5.568-8.259 0-3.426.632-7.199 1.897-11.319 1.305-4.16 1.958-6.628 1.958-7.403 0-1.713-.347-2.57-1.04-2.57-.122 0-.306.041-.551.122-.204.041-.347.061-.428.061-.775 0-1.162-.408-1.162-1.224 0-.816.51-1.224 1.53-1.224 2.243 0 3.365 2.182 3.365 6.546 0 1.305-.306 3.61-.918 6.913-.612 3.304-.918 6.2-.918 8.688 0 4.242 1.06 6.363 3.181 6.363 1.713 0 2.57-1.917 2.57-5.751v-14.194"/><path d="M239.199 486.837c0-1.631-.551-2.61-1.652-2.937-.612-.122-.918-.265-.918-.428 0-.204.367-.306 1.101-.306h5.506v36.892c0 1.632.571 2.61 1.713 2.937.571.163.857.326.857.489 0 .163-.367.245-1.101.245h-6.975c-.734 0-1.101-.082-1.101-.245 0-.204.306-.367.918-.489 1.101-.326 1.652-1.305 1.652-2.937v-33.222m5.078 28.327c0 .408.286.714.857.918.571.163.857.53.857 1.101 0 .408-.224.612-.673.612-1.101 0-1.652-.795-1.652-2.386 0-1.264.428-3.141 1.285-5.629l2.141-6.118c.571-1.631.857-2.916.857-3.854 0-1.183-.387-1.856-1.162-2.019-.571-.122-.857-.285-.857-.489 0-.082.367-.122 1.101-.122h6.179c.734 0 1.101.041 1.101.122 0 .204-.306.388-.918.551-.612.122-1.183.673-1.713 1.652-1.101 2.284-2.203 4.548-3.304 6.791l3.426 13.766c.245 1.101.408 1.713.489 1.835.245.571.653.938 1.224 1.101.571.122.857.286.857.489 0 .163-.367.245-1.101.245h-5.629c-.734 0-1.101-.082-1.101-.245 0-.204.285-.367.857-.489.897-.163 1.142-1.04.734-2.631l-2.141-8.871c-.082-.367-.184-.551-.306-.551-.204 0-.489.612-.857 1.835-.367 1.183-.551 1.978-.551 2.386"/><path d="M269.096 509.903c-5.425-.326-8.137.857-8.137 3.549 0 .612.143.918.428.918.082 0 .224-.102.428-.306.245-.245.489-.367.734-.367.612 0 .918.367.918 1.101 0 .367-.163.734-.489 1.101-.286.326-.653.489-1.101.489-.489 0-.979-.265-1.468-.795-.449-.53-.673-1.203-.673-2.019 0-1.713.979-3.243 2.937-4.589 1.999-1.346 2.998-2.957 2.998-4.833 0-2.529-.918-3.793-2.753-3.793-2.57 0-3.854 4.058-3.854 12.175 0 2.855.265 4.854.795 5.996.571 1.101 1.468 1.652 2.692 1.652.734 0 1.509-.449 2.325-1.346.857-.938 1.285-1.897 1.285-2.876 0-1.183-.469-2.427-1.407-3.732.326-.082.653-.122.979-.122 2.488 0 3.732 1.53 3.732 4.589 0 2.08-.632 3.814-1.897 5.2-1.387 1.468-3.181 2.203-5.384 2.203-4.446 0-6.669-4.058-6.669-12.175 0-9.993 2.447-14.989 7.342-14.989 4.242 0 6.363 3.345 6.363 10.034 0 .897-.041 1.876-.122 2.937"/><path d="M274.289 500.787c0-1.591-.551-2.57-1.652-2.937-.571-.082-.857-.224-.857-.428 0-.163.367-.245 1.101-.245h4.833l.306 1.774c1.101-1.346 2.162-2.019 3.181-2.019 2.814 0 4.221 1.407 4.222 4.222 0 2.978-1.305 4.344-3.916 4.099.775-1.02 1.162-1.999 1.162-2.937 0-.571-.204-1.06-.612-1.468-.367-.408-.816-.612-1.346-.612-1.591 0-2.386 1.224-2.386 3.671v16.274c0 1.631.571 2.61 1.713 2.937.571.163.857.326.857.489 0 .122-.367.184-1.101.184h-6.914c-.734 0-1.101-.061-1.101-.184 0-.245.286-.408.857-.489 1.101-.326 1.652-1.305 1.652-2.937v-19.395"/><path d="M118.485 535.077v-2.278c0-2.38.802-3.57 2.405-3.57.591 0 1.072.194 1.443.582.388.371.582.861.582 1.468 0 .54-.127.962-.38 1.266-.236.304-.523.456-.861.456-.219 0-.363-.034-.43-.101.388-.388.582-.819.582-1.291 0-.759-.287-1.139-.861-1.139-.557 0-.835.7-.835 2.101v2.506h1.114v1.013h-1.114v8.506c0 .675.236 1.08.709 1.215.253.068.38.135.38.203 0 .051-.152.076-.456.076h-2.886c-.304 0-.456-.025-.456-.076 0-.084.127-.152.38-.203.456-.135.684-.54.684-1.215v-8.506h-1.063v-1.013h1.063"/><path d="M125.184 530.495c.624 0 .937.43.937 1.291 0 .878-.312 1.316-.937 1.316-.624 0-.937-.439-.937-1.316 0-.861.312-1.291.937-1.291m-.835 6.152c0-.675-.228-1.08-.684-1.215-.253-.034-.38-.101-.38-.203 0-.051.152-.076.456-.076h2.253v9.494c0 .675.236 1.072.709 1.19.051.017.127.076.228.177.118.084.177.143.177.177h-.127c-.118-.034-.236-.051-.354-.051h-2.886c-.304 0-.456-.008-.456-.025l.127-.127c.101-.084.186-.135.253-.152.456-.135.684-.532.684-1.19v-8"/><path d="M131.054 544.647c0 .675.236 1.08.709 1.215.253.068.38.135.38.203 0 .051-.152.076-.456.076h-2.278v-9.494c0-.658-.228-1.063-.684-1.215-.253-.034-.38-.11-.38-.228 0-.034.152-.051.456-.051h2.228v.937c.456-.692 1.004-1.038 1.646-1.038 1.418 0 2.127 1.131 2.127 3.392v6.203c0 .675.236 1.08.709 1.215.253.068.38.135.38.203 0 .051-.152.076-.456.076h-2.278v-8.304c0-.861-.346-1.291-1.038-1.291-.709 0-1.063.405-1.063 1.215v6.886"/><path d="M142.848 540.393c-2.245-.135-3.367.354-3.367 1.468 0 .253.059.38.177.38.034 0 .093-.042.177-.127.101-.101.203-.152.304-.152.253 0 .38.152.38.456 0 .152-.068.304-.203.456-.118.135-.27.203-.456.203-.203 0-.405-.11-.608-.329-.186-.219-.278-.498-.278-.835 0-.709.405-1.342 1.215-1.899.827-.557 1.241-1.224 1.241-2 0-1.046-.38-1.57-1.139-1.57-1.063 0-1.595 1.679-1.595 5.038 0 1.181.11 2.008.329 2.481.236.456.608.684 1.114.684.304 0 .624-.186.962-.557.354-.388.532-.785.532-1.19 0-.489-.194-1.004-.582-1.544.135-.034.27-.051.405-.051 1.03 0 1.544.633 1.544 1.899 0 .861-.262 1.578-.785 2.152-.574.608-1.316.911-2.228.911-1.84 0-2.759-1.679-2.759-5.038 0-4.135 1.013-6.203 3.038-6.203 1.755 0 2.633 1.384 2.633 4.152 0 .371-.017.776-.051 1.215"/><path d="M154.754 539.178c.371-.523.557-1.004.557-1.443 0-.321-.101-.616-.304-.886-.203-.287-.447-.43-.734-.43-.574 0-.987.262-1.241.785-.287.608-.43 1.662-.43 3.165 0 1.705.118 2.861.354 3.468.219.523.608.785 1.165.785.844 0 1.266-.574 1.266-1.722 0-.709-.278-1.122-.835-1.24.084-.219.262-.329.532-.329.456 0 .844.203 1.165.608.321.388.481.827.481 1.316 0 1.992-.869 2.987-2.608 2.987-2.008 0-3.013-1.857-3.013-5.57 0-3.781 1.004-5.671 3.013-5.671.709 0 1.291.219 1.747.658.473.439.709 1.046.709 1.823 0 .574-.118 1.013-.354 1.316-.186.219-.422.371-.709.456-.287.084-.54.059-.759-.076"/><path d="M161.871 534.95c1.958 0 2.937 1.865 2.937 5.595 0 3.865-.979 5.797-2.937 5.797-1.975 0-2.962-1.932-2.962-5.797 0-3.73.987-5.595 2.962-5.595m0 1.418c-.945 0-1.418 1.392-1.418 4.177 0 2.92.473 4.38 1.418 4.38.928 0 1.392-1.46 1.392-4.38 0-2.785-.464-4.177-1.392-4.177"/><path d="M169.71 544.647c0 .675.236 1.08.709 1.215.253.068.38.135.38.203 0 .051-.152.076-.456.076h-2.278v-9.494c0-.658-.228-1.063-.684-1.215-.253-.034-.38-.11-.38-.228 0-.034.152-.051.456-.051h2.228v.937c.456-.692 1.004-1.038 1.646-1.038 1.418 0 2.127 1.131 2.127 3.392v6.203c0 .675.236 1.08.709 1.215.253.068.38.135.38.203 0 .051-.152.076-.456.076h-2.278v-8.304c0-.861-.346-1.291-1.038-1.291-.709 0-1.063.405-1.063 1.215v6.886"/><path d="M179.504 539.178c.371-.523.557-1.004.557-1.443 0-.321-.101-.616-.304-.886-.203-.287-.447-.43-.734-.43-.574 0-.987.262-1.241.785-.287.608-.43 1.662-.43 3.165 0 1.705.118 2.861.354 3.468.219.523.608.785 1.165.785.844 0 1.266-.574 1.266-1.722 0-.709-.278-1.122-.835-1.24.084-.219.262-.329.532-.329.456 0 .844.203 1.165.608.321.388.481.827.481 1.316 0 1.992-.869 2.987-2.608 2.987-2.008 0-3.013-1.857-3.013-5.57 0-3.781 1.004-5.671 3.013-5.671.709 0 1.291.219 1.747.658.473.439.709 1.046.709 1.823 0 .574-.118 1.013-.354 1.316-.186.219-.422.371-.709.456-.287.084-.54.059-.759-.076"/><path d="M189.254 540.393c-2.245-.135-3.367.354-3.367 1.468 0 .253.059.38.177.38.034 0 .093-.042.177-.127.101-.101.203-.152.304-.152.253 0 .38.152.38.456 0 .152-.068.304-.203.456-.118.135-.27.203-.456.203-.203 0-.405-.11-.608-.329-.186-.219-.278-.498-.278-.835 0-.709.405-1.342 1.215-1.899.827-.557 1.241-1.224 1.241-2 0-1.046-.38-1.57-1.139-1.57-1.063 0-1.595 1.679-1.595 5.038 0 1.181.11 2.008.329 2.481.236.456.608.684 1.114.684.304 0 .624-.186.962-.557.354-.388.532-.785.532-1.19 0-.489-.194-1.004-.582-1.544.135-.034.27-.051.405-.051 1.03 0 1.544.633 1.544 1.899 0 .861-.262 1.578-.785 2.152-.574.608-1.316.911-2.228.911-1.84 0-2.759-1.679-2.759-5.038 0-4.135 1.013-6.203 3.038-6.203 1.755 0 2.633 1.384 2.633 4.152 0 .371-.017.776-.051 1.215"/><path d="M192.403 536.621c0-.658-.228-1.063-.684-1.215-.236-.034-.354-.093-.354-.177 0-.068.152-.101.456-.101h2l.127.734c.456-.557.895-.835 1.316-.835 1.165 0 1.747.582 1.747 1.747 0 1.232-.54 1.797-1.62 1.696.321-.422.481-.827.481-1.215 0-.236-.084-.439-.253-.608-.152-.169-.338-.253-.557-.253-.658 0-.987.506-.987 1.519v6.734c0 .675.236 1.08.709 1.215.236.068.354.135.354.203 0 .051-.152.076-.456.076h-2.861c-.304 0-.456-.025-.456-.076 0-.101.118-.169.354-.203.456-.135.684-.54.684-1.215v-8.025"/><path d="M199.923 535.128v-1.038c-.051-.287-.203-.565-.456-.835.608-.422 1.038-.785 1.291-1.089.152-.203.43-.633.835-1.291v4.253h1.215v1.139h-1.215v6.127c0 .979.034 1.603.101 1.873.068.253.245.38.532.38.388 0 .582-.312.582-.937 0-.371-.169-.844-.506-1.418.54-.068.979.101 1.316.506.338.388.506.903.506 1.544 0 .506-.16.954-.481 1.342-.371.422-.878.633-1.519.633-.793 0-1.359-.262-1.696-.785-.338-.54-.506-1.527-.506-2.962v-6.304h-.835v-1.139h.835"/><path d="M215.489 539.178c.371-.523.557-1.004.557-1.443 0-.321-.101-.616-.304-.886-.203-.287-.447-.43-.734-.43-.574 0-.987.262-1.24.785-.287.608-.43 1.662-.43 3.165 0 1.705.118 2.861.354 3.468.219.523.608.785 1.165.785.844 0 1.266-.574 1.266-1.722 0-.709-.278-1.122-.835-1.24.084-.219.262-.329.532-.329.456 0 .844.203 1.165.608.321.388.481.827.481 1.316 0 1.992-.869 2.987-2.608 2.987-2.008 0-3.013-1.857-3.013-5.57 0-3.781 1.004-5.671 3.013-5.671.709 0 1.291.219 1.747.658.473.439.709 1.046.709 1.823 0 .574-.118 1.013-.354 1.316-.186.219-.422.371-.709.456-.287.084-.54.059-.759-.076"/><path d="M220.758 530.875c0-.675-.228-1.08-.684-1.215-.253-.051-.38-.11-.38-.177 0-.084.152-.127.456-.127h2.253v15.241c0 .675.236 1.08.709 1.215.253.068.38.135.38.203s-.152.101-.456.101h-2.886c-.304 0-.456-.034-.456-.101 0-.084.127-.152.38-.203.456-.135.684-.54.684-1.215v-13.722"/><path d="M231.092 544.596c0 .692.236 1.105.709 1.24.051.017.118.068.203.152.101.084.152.143.152.177 0-.034-.152-.051-.456-.051l-2.051.051c-.017 0-.025-.338-.025-1.013-.641.726-1.291 1.089-1.949 1.089-.591 0-1.097-.236-1.519-.709-.422-.489-.633-1.173-.633-2.051 0-.793.262-1.494.785-2.101.186-.219.692-.658 1.519-1.316.591-.473.928-.903 1.013-1.291-.034-.051-.177-.143-.43-.278-.186-.101-.278-.253-.278-.456 0-.304.169-.456.506-.456.473 0 .709.422.709 1.266 0 .523-.371 1.232-1.114 2.127-.743.878-1.114 1.705-1.114 2.481 0 .338.093.633.278.886.186.253.43.38.734.38.945 0 1.418-1.004 1.418-3.013v-2.886l.025-.304.025-.456c0-1.114-.371-1.671-1.114-1.671-.27 0-.523.135-.759.405-.236.253-.354.549-.354.886 0 .405.211.911.633 1.519-.118.135-.278.203-.481.203-.439 0-.793-.194-1.063-.582-.253-.405-.38-.886-.38-1.443 0-.726.228-1.3.684-1.722.456-.439 1.046-.658 1.772-.658 1.705 0 2.557.996 2.557 2.987v6.608"/><path d="M236.96 538.545c.405-.456.608-.835.608-1.139 0-.759-.405-1.139-1.215-1.139-.321 0-.591.11-.81.329-.203.219-.304.498-.304.835 0 .489.321.996.962 1.519 1.046.827 1.654 1.333 1.823 1.519.641.743.962 1.629.962 2.658 0 .895-.211 1.629-.633 2.203-.523.692-1.274 1.038-2.253 1.038-.759 0-1.384-.219-1.873-.658-.574-.506-.861-1.224-.861-2.152 0-.54.135-.987.405-1.342.287-.371.582-.557.886-.557.388 0 .633.068.734.203-.405.506-.608 1.038-.608 1.595 0 .422.118.776.354 1.063.253.27.574.405.962.405.439 0 .793-.16 1.063-.481.27-.338.405-.734.405-1.19 0-.743-.321-1.392-.962-1.949l-1.823-1.418c-.658-.608-.987-1.35-.987-2.228 0-.776.219-1.418.658-1.924.473-.574 1.114-.861 1.924-.861.726 0 1.325.203 1.797.608.473.388.709.895.709 1.519 0 .523-.127.945-.38 1.266-.253.321-.574.481-.962.481-.304 0-.498-.068-.582-.203"/><path d="M244.617 538.545c.405-.456.608-.835.608-1.139 0-.759-.405-1.139-1.215-1.139-.321 0-.591.11-.81.329-.203.219-.304.498-.304.835 0 .489.321.996.962 1.519 1.046.827 1.654 1.333 1.823 1.519.641.743.962 1.629.962 2.658 0 .895-.211 1.629-.633 2.203-.523.692-1.274 1.038-2.253 1.038-.759 0-1.384-.219-1.873-.658-.574-.506-.861-1.224-.861-2.152 0-.54.135-.987.405-1.342.287-.371.582-.557.886-.557.388 0 .633.068.734.203-.405.506-.608 1.038-.608 1.595 0 .422.118.776.354 1.063.253.27.574.405.962.405.439 0 .793-.16 1.063-.481.27-.338.405-.734.405-1.19 0-.743-.321-1.392-.962-1.949l-1.823-1.418c-.658-.608-.987-1.35-.987-2.228 0-.776.219-1.418.658-1.924.473-.574 1.114-.861 1.924-.861.726 0 1.325.203 1.797.608.473.388.709.895.709 1.519 0 .523-.127.945-.38 1.266-.253.321-.574.481-.962.481-.304 0-.498-.068-.582-.203"/><path d="M250.653 530.495c.624 0 .937.43.937 1.291 0 .878-.312 1.316-.937 1.316-.624 0-.937-.439-.937-1.316 0-.861.312-1.291.937-1.291m-.835 6.152c0-.675-.228-1.08-.684-1.215-.253-.034-.38-.101-.38-.203 0-.051.152-.076.456-.076h2.253v9.494c0 .675.236 1.072.709 1.19.051.017.127.076.228.177.118.084.177.143.177.177h-.127c-.118-.034-.236-.051-.354-.051h-2.886c-.304 0-.456-.008-.456-.025l.127-.127c.101-.084.186-.135.253-.152.456-.135.684-.532.684-1.19v-8"/><path d="M257.536 539.178c.371-.523.557-1.004.557-1.443 0-.321-.101-.616-.304-.886-.203-.287-.447-.43-.734-.43-.574 0-.987.262-1.241.785-.287.608-.43 1.662-.43 3.165 0 1.705.118 2.861.354 3.468.219.523.608.785 1.165.785.844 0 1.266-.574 1.266-1.722 0-.709-.278-1.122-.835-1.24.084-.219.262-.329.532-.329.456 0 .844.203 1.165.608.321.388.481.827.481 1.316 0 1.992-.869 2.987-2.608 2.987-2.008 0-3.013-1.857-3.013-5.57 0-3.781 1.004-5.671 3.013-5.671.709 0 1.291.219 1.747.658.473.439.709 1.046.709 1.823 0 .574-.118 1.013-.354 1.316-.186.219-.422.371-.709.456-.287.084-.54.059-.759-.076"/><path d="M267.311 544.596c0 .692.236 1.105.709 1.24.051.017.118.068.203.152.101.084.152.143.152.177 0-.034-.152-.051-.456-.051l-2.051.051c-.017 0-.025-.338-.025-1.013-.641.726-1.291 1.089-1.949 1.089-.591 0-1.097-.236-1.519-.709-.422-.489-.633-1.173-.633-2.051 0-.793.262-1.494.785-2.101.186-.219.692-.658 1.519-1.316.591-.473.928-.903 1.013-1.291-.034-.051-.177-.143-.43-.278-.186-.101-.278-.253-.278-.456 0-.304.169-.456.506-.456.473 0 .709.422.709 1.266 0 .523-.371 1.232-1.114 2.127-.743.878-1.114 1.705-1.114 2.481 0 .338.093.633.278.886.186.253.43.38.734.38.945 0 1.418-1.004 1.418-3.013v-2.886l.025-.304.025-.456c0-1.114-.371-1.671-1.114-1.671-.27 0-.523.135-.759.405-.236.253-.354.549-.354.886 0 .405.211.911.633 1.519-.118.135-.278.203-.481.203-.439 0-.793-.194-1.063-.582-.253-.405-.38-.886-.38-1.443 0-.726.228-1.3.684-1.722.456-.439 1.046-.658 1.772-.658 1.705 0 2.557.996 2.557 2.987v6.608"/><path d="M270.977 530.875c0-.675-.228-1.08-.684-1.215-.253-.051-.38-.11-.38-.177 0-.084.152-.127.456-.127h2.253v15.241c0 .675.236 1.08.709 1.215.253.068.38.135.38.203s-.152.101-.456.101h-2.886c-.304 0-.456-.034-.456-.101 0-.084.127-.152.38-.203.456-.135.684-.54.684-1.215v-13.722"/><path d="M283.385 544.064l-.329.278c-.101.101-.152.262-.152.481 0 .473.456.759 1.367.861 1.418.135 2.253.253 2.506.354.911.338 1.367 1.055 1.367 2.152 0 1.772-1.08 2.658-3.24 2.658-1.063 0-1.899-.211-2.506-.633-.591-.405-.886-.97-.886-1.696 0-.388.11-.734.329-1.038.236-.287.54-.43.911-.43.203 0 .38.051.532.152.152.118.228.236.228.354l-.051.127c-.371.101-.557.329-.557.684 0 .776.675 1.165 2.025 1.165 1.283 0 1.924-.371 1.924-1.114 0-.726-.439-1.148-1.316-1.266-.861-.118-1.705-.228-2.532-.329-.911-.236-1.367-.81-1.367-1.722 0-.354.101-.658.304-.911.203-.253.439-.38.709-.38.371 0 .616.084.734.253m3.063-8c.489-.574.954-.861 1.392-.861.388 0 .692.127.911.38.236.253.354.557.354.911 0 .338-.084.633-.253.886-.169.253-.397.38-.684.38-.118 0-.236-.017-.354-.051.186-.152.278-.363.278-.633 0-.371-.16-.557-.481-.557-.422 0-.633.262-.633.785 0 .236.025.599.076 1.089.068.489.101.861.101 1.114 0 1.418-.219 2.54-.658 3.367-.439.827-1.046 1.241-1.823 1.24-.743 0-1.342-.413-1.797-1.24-.439-.827-.658-1.949-.658-3.367 0-1.401.219-2.506.658-3.316.439-.81 1.038-1.215 1.797-1.215.726 0 1.316.363 1.772 1.089m-1.772.43c-.709 0-1.063 1.021-1.063 3.063 0 2.042.354 3.063 1.063 3.063.776 0 1.165-1.021 1.165-3.063 0-2.042-.388-3.063-1.165-3.063"/><path d="M294.783 536.647c0-.675-.236-1.08-.709-1.215-.236-.068-.354-.135-.354-.203 0-.051.152-.076.456-.076h2.886c.304 0 .456.025.456.076 0 .068-.127.135-.38.203-.473.135-.709.54-.709 1.215v8.025c0 .675.236 1.072.709 1.19.253.084.38.152.38.203 0 .068-.152.101-.456.101h-2.278v-.582c-.456.456-.996.684-1.62.684-1.536 0-2.304-1.139-2.304-3.418 0-1.418.262-2.979.785-4.684.54-1.722.81-2.743.81-3.063 0-.709-.143-1.063-.43-1.063l-.228.051-.177.025c-.321 0-.481-.169-.481-.506 0-.338.211-.506.633-.506.928 0 1.392.903 1.392 2.709 0 .54-.127 1.494-.38 2.861-.253 1.367-.38 2.565-.38 3.595 0 1.755.439 2.633 1.316 2.633.709 0 1.063-.793 1.063-2.38v-5.873"/><path d="M301.246 530.495c.624 0 .937.43.937 1.291 0 .878-.312 1.316-.937 1.316-.624 0-.937-.439-.937-1.316 0-.861.312-1.291.937-1.291m-.835 6.152c0-.675-.228-1.08-.684-1.215-.253-.034-.38-.101-.38-.203 0-.051.152-.076.456-.076h2.253v9.494c0 .675.236 1.072.709 1.19.051.017.127.076.228.177.118.084.177.143.177.177h-.127c-.118-.034-.236-.051-.354-.051h-2.886c-.304 0-.456-.008-.456-.025l.127-.127c.101-.084.186-.135.253-.152.456-.135.684-.532.684-1.19v-8"/><path d="M305.345 535.128v-1.038c-.051-.287-.203-.565-.456-.835.608-.422 1.038-.785 1.291-1.089.152-.203.43-.633.835-1.291v4.253h1.215v1.139h-1.215v6.127c0 .979.034 1.603.101 1.873.068.253.245.38.532.38.388 0 .582-.312.582-.937 0-.371-.169-.844-.506-1.418.54-.068.979.101 1.316.506.338.388.506.903.506 1.544 0 .506-.16.954-.481 1.342-.371.422-.878.633-1.519.633-.793 0-1.359-.262-1.696-.785-.338-.54-.506-1.527-.506-2.962v-6.304h-.835v-1.139h.835"/><path d="M317.014 544.596c0 .692.236 1.105.709 1.24.051.017.118.068.203.152.101.084.152.143.152.177 0-.034-.152-.051-.456-.051l-2.051.051c-.017 0-.025-.338-.025-1.013-.641.726-1.291 1.089-1.949 1.089-.591 0-1.097-.236-1.519-.709-.422-.489-.633-1.173-.633-2.051 0-.793.262-1.494.785-2.101.186-.219.692-.658 1.519-1.316.591-.473.928-.903 1.013-1.291-.034-.051-.177-.143-.43-.278-.186-.101-.278-.253-.278-.456 0-.304.169-.456.506-.456.473 0 .709.422.709 1.266 0 .523-.371 1.232-1.114 2.127-.743.878-1.114 1.705-1.114 2.481 0 .338.093.633.278.886.186.253.43.38.734.38.945 0 1.418-1.004 1.418-3.013v-2.886l.025-.304.025-.456c0-1.114-.371-1.671-1.114-1.671-.27 0-.523.135-.759.405-.236.253-.354.549-.354.886 0 .405.211.911.633 1.519-.118.135-.278.203-.481.203-.439 0-.793-.194-1.063-.582-.253-.405-.38-.886-.38-1.443 0-.726.228-1.3.684-1.722.456-.439 1.046-.658 1.772-.658 1.705 0 2.557.996 2.557 2.987v6.608"/><path d="M320.325 536.621c0-.658-.228-1.063-.684-1.215-.236-.034-.354-.093-.354-.177 0-.068.152-.101.456-.101h2l.127.734c.456-.557.895-.835 1.316-.835 1.165 0 1.747.582 1.747 1.747 0 1.232-.54 1.797-1.62 1.696.321-.422.481-.827.481-1.215 0-.236-.084-.439-.253-.608-.152-.169-.338-.253-.557-.253-.658 0-.987.506-.987 1.519v6.734c0 .675.236 1.08.709 1.215.236.068.354.135.354.203 0 .051-.152.076-.456.076h-2.861c-.304 0-.456-.025-.456-.076 0-.101.118-.169.354-.203.456-.135.684-.54.684-1.215v-8.025"/><path d="M330.351 538.545c.405-.456.608-.835.608-1.139 0-.759-.405-1.139-1.215-1.139-.321 0-.591.11-.81.329-.203.219-.304.498-.304.835 0 .489.321.996.962 1.519 1.046.827 1.654 1.333 1.823 1.519.641.743.962 1.629.962 2.658 0 .895-.211 1.629-.633 2.203-.523.692-1.274 1.038-2.253 1.038-.759 0-1.384-.219-1.873-.658-.574-.506-.861-1.224-.861-2.152 0-.54.135-.987.405-1.342.287-.371.582-.557.886-.557.388 0 .633.068.734.203-.405.506-.608 1.038-.608 1.595 0 .422.118.776.354 1.063.253.27.574.405.962.405.439 0 .793-.16 1.063-.481.27-.338.405-.734.405-1.19 0-.743-.321-1.392-.962-1.949l-1.823-1.418c-.658-.608-.987-1.35-.987-2.228 0-.776.219-1.418.658-1.924.473-.574 1.114-.861 1.924-.861.726 0 1.325.203 1.797.608.473.388.709.895.709 1.519 0 .523-.127.945-.38 1.266-.253.321-.574.481-.962.481-.304 0-.498-.068-.582-.203"/></g></svg>