<svg xmlns="http://www.w3.org/2000/svg" width="236.206" height="72.873"><g fill="#000000" transform="translate(-116.32 -482.166)"><path d="M142.472 486.837v33.16c0 1.672.53 2.672 1.591 2.998.693.163 1.04.306 1.04.428v.367h-9.422v-.428c0-.122.347-.245 1.04-.367 1.02-.326 1.53-1.326 1.53-2.998v-28.266l-5.812 31.937h-1.774l-6.179-31.08v27.409c0 1.713.53 2.712 1.591 2.998.653.204.979.347.979.428v.367h-9.361v-.367c0-.163.367-.306 1.101-.428.979-.286 1.468-1.285 1.468-2.998v-13.888c0-.938-.428-1.672-1.285-2.203-.857-.53-1.285-1.264-1.285-2.203 0-.122.082-.163.245-.122.245.122.387.184.428.184.979 0 1.57-.326 1.774-.979.082-.245.122-1.02.122-2.325v-11.624c0-1.631-.551-2.61-1.652-2.937-.571-.082-.857-.163-.857-.245 0-.082-.041-.245-.122-.489h12.175c-.163.082-.163.245 0 .489-.571.245-1.081.714-1.53 1.407-.449.693-.612 1.407-.489 2.141l3.854 18.293 3.61-18.293c.082-.408.122-.775.122-1.101 0-.775-.224-1.346-.673-1.713-.367-.204-.755-.408-1.162-.612v-.612h11.563v.551c0-.041-.306.02-.918.184-1.142.326-1.713 1.305-1.713 2.937"/><path d="M161.54 520.059c0 1.672.571 2.672 1.713 2.998.122.041.285.163.489.367.245.204.367.347.367.428 0-.082-.367-.122-1.101-.122l-4.956.122c-.041 0-.061-.816-.061-2.447-1.55 1.754-3.12 2.631-4.711 2.631-1.428 0-2.651-.571-3.671-1.713-1.02-1.183-1.53-2.835-1.53-4.956 0-1.917.632-3.61 1.897-5.078.449-.53 1.672-1.591 3.671-3.181 1.428-1.142 2.243-2.182 2.447-3.12-.082-.122-.428-.347-1.04-.673-.449-.245-.673-.612-.673-1.101 0-.734.408-1.101 1.224-1.101 1.142 0 1.713 1.02 1.713 3.059 0 1.264-.897 2.978-2.692 5.139-1.795 2.121-2.692 4.12-2.692 5.996 0 .816.224 1.53.673 2.141.449.612 1.04.918 1.774.918 2.284 0 3.426-2.427 3.426-7.281v-6.975c0-.082.02-.326.061-.734.041-.408.061-.775.061-1.101 0-2.692-.897-4.038-2.692-4.038-.653 0-1.264.326-1.835.979-.571.612-.857 1.326-.857 2.141 0 .979.51 2.203 1.53 3.671-.286.326-.673.489-1.162.489-1.06 0-1.917-.469-2.57-1.407-.612-.979-.918-2.141-.918-3.487 0-1.754.551-3.141 1.652-4.16 1.101-1.06 2.529-1.591 4.283-1.591 4.12 0 6.179 2.406 6.179 7.219v15.968"/><path d="M167.492 500.848c0-1.631-.551-2.61-1.652-2.937-.612-.122-.918-.265-.918-.428 0-.204.367-.306 1.101-.306h5.506v22.882c0 1.632.571 2.61 1.713 2.937.571.163.857.326.857.489 0 .163-.367.245-1.101.245h-6.975c-.734 0-1.101-.082-1.101-.245 0-.204.306-.367.918-.489 1.101-.326 1.652-1.305 1.652-2.937v-19.211m5.078 14.316c0 .408.286.714.857.918.571.163.857.53.857 1.101 0 .408-.224.612-.673.612-1.101 0-1.652-.795-1.652-2.386 0-1.264.428-3.141 1.285-5.629l2.141-6.118c.571-1.631.857-2.916.857-3.854 0-1.183-.388-1.856-1.162-2.019-.571-.122-.857-.285-.857-.489 0-.082.367-.122 1.101-.122h6.179c.734 0 1.101.041 1.101.122 0 .204-.306.388-.918.551-.612.122-1.183.673-1.713 1.652-1.101 2.284-2.203 4.548-3.304 6.791l3.426 13.766c.245 1.101.408 1.713.489 1.835.245.571.653.938 1.224 1.101.571.122.857.286.857.489 0 .163-.367.245-1.101.245h-5.629c-.734 0-1.101-.082-1.101-.245 0-.204.285-.367.857-.489.897-.163 1.142-1.04.734-2.631l-2.141-8.871c-.082-.367-.184-.551-.306-.551-.204 0-.489.612-.857 1.835-.367 1.183-.551 1.978-.551 2.386"/><path d="M192.556 506.966c.897-1.264 1.346-2.427 1.346-3.487 0-.775-.245-1.489-.734-2.141-.489-.693-1.081-1.04-1.774-1.04-1.387 0-2.386.632-2.998 1.897-.693 1.468-1.04 4.018-1.04 7.648 0 4.12.286 6.914.857 8.382.53 1.264 1.468 1.897 2.814 1.897 2.039 0 3.059-1.387 3.059-4.16 0-1.713-.673-2.712-2.019-2.998.204-.53.632-.795 1.285-.795 1.101 0 2.039.489 2.814 1.468.775.938 1.162 1.999 1.162 3.181 0 4.813-2.101 7.219-6.302 7.219-4.854 0-7.281-4.487-7.281-13.46 0-9.136 2.427-13.705 7.281-13.705 1.713 0 3.12.53 4.222 1.591 1.142 1.06 1.713 2.529 1.713 4.405 0 1.387-.286 2.447-.857 3.181-.449.53-1.02.897-1.713 1.101-.693.204-1.305.143-1.835-.184"/><path d="M208.408 500.848c0-1.631-.571-2.61-1.713-2.937-.571-.163-.857-.326-.857-.489 0-.122.367-.184 1.101-.184h6.975c.734 0 1.101.061 1.101.184 0 .163-.306.326-.918.489-1.142.326-1.713 1.305-1.713 2.937v19.395c0 1.632.571 2.59 1.713 2.876.612.204.918.367.918.489 0 .163-.367.245-1.101.245h-5.506v-1.407c-1.101 1.101-2.406 1.652-3.916 1.652-3.712 0-5.568-2.753-5.568-8.259 0-3.426.632-7.199 1.897-11.319 1.305-4.16 1.958-6.628 1.958-7.403 0-1.713-.347-2.57-1.04-2.57-.122 0-.306.041-.551.122-.204.041-.347.061-.428.061-.775 0-1.162-.408-1.162-1.224 0-.816.51-1.224 1.53-1.224 2.243 0 3.365 2.182 3.365 6.546 0 1.305-.306 3.61-.918 6.913-.612 3.304-.918 6.2-.918 8.688 0 4.242 1.06 6.363 3.181 6.363 1.713 0 2.57-1.917 2.57-5.751v-14.194"/><path d="M220.204 511.799v-12.481c0-1.101-.489-1.774-1.468-2.019-.489-.041-.734-.082-.734-.122 0-.082-.041-.204-.122-.367h10.707c-.163.082-.163.204 0 .367-.53.163-.999.489-1.407.979-.367.449-.489.918-.367 1.407l3.365 11.808 3.181-11.808c.041-.285.061-.53.061-.734 0-.53-.184-.918-.551-1.162-.326-.163-.673-.306-1.04-.428v-.428h10.156v.367l-.795.122c-1.02.245-1.53.918-1.53 2.019v21.842c0 1.142.469 1.815 1.407 2.019.612.122.918.224.918.306v.245h-8.259v-.306c0-.082.306-.163.918-.245.897-.204 1.346-.877 1.346-2.019v-18.232l-5.139 20.741h-1.53l-5.445-20.19v17.681c0 1.183.469 1.856 1.407 2.019.571.163.857.265.857.306v.245h-8.198v-.245c0-.122.326-.224.979-.306.857-.163 1.285-.836 1.285-2.019v-9.361"/><path d="M270.879 520.12v-33.16c0-.734-.143-1.305-.428-1.713-.245-.408-.53-.714-.857-.918-.286-.204-.571-.367-.857-.489-.245-.122-.367-.285-.367-.489h9.238v.489c-.489.082-.918.245-1.285.489-.326.204-.612.53-.857.979-.245.408-.367.959-.367 1.652l.184 32.977h4.772c-.489 1.591-.857 2.835-1.101 3.732-.245.897-.367 1.815-.367 2.753 0 1.02.184 2.019.551 2.998h.245c.204 0 .408.082.612.245.245.163.367.387.367.673 0 .163-.122.367-.367.612-.204.245-.388.367-.551.367-.857 0-1.428-.408-1.713-1.224-.245-.775-.428-1.652-.551-2.631-.122-.938-.306-1.815-.551-2.631-.204-.775-.693-1.162-1.468-1.162h-.428l-19.762.122v-.428c0-.041.122-.102.367-.184.286-.082.591-.224.918-.428.326-.204.612-.51.857-.918.286-.408.428-.979.428-1.713v-13.949c0-.489-.143-.877-.428-1.162-.245-.326-.53-.632-.857-.918-.326-.285-.632-.612-.918-.979-.245-.408-.367-.918-.367-1.53l.061-.061c.082 0 .184.061.306.184.122.082.224.122.306.122.734 0 1.224-.204 1.468-.612.286-.449.428-1.407.428-2.876v-12.236c0-.204-.041-.387-.122-.551-.041-.163-.163-.306-.367-.428-.163-.163-.408-.387-.734-.673-.775-.122-1.162-.224-1.162-.306v-.857h8.994v.428l-.428.061c-.245.041-.51.184-.795.428-.286.204-.551.51-.795.918-.245.408-.367.979-.367 1.713l.061 33.283h9.055"/><path d="M289.581 523.852l-4.527-22.698c-.367-1.958-1.02-3.039-1.958-3.243-.612-.122-.918-.285-.918-.489 0-.122.367-.184 1.101-.184h6.424c.734 0 1.101.061 1.101.184 0 .204-.286.367-.857.489-.693.163-1.04.836-1.04 2.019 0 .449.061.959.184 1.53l2.386 12.909 2.447-12.909c.122-.693.184-1.285.184-1.774 0-1.02-.306-1.591-.918-1.713-.612-.163-.918-.347-.918-.551 0-.122.367-.184 1.101-.184h6.241c.734 0 1.101.061 1.101.184 0 .245-.286.408-.857.489-1.183.367-1.978 1.55-2.386 3.549l-3.732 18.783c-1.224 6.159-2.182 9.993-2.876 11.502-.897 1.999-2.386 2.998-4.466 2.998-2.774 0-4.16-1.509-4.16-4.527 0-2.488 1.122-3.732 3.365-3.732.857 0 1.407.245 1.652.734-1.142.775-1.713 1.631-1.713 2.57 0 1.02.428 1.53 1.285 1.53.775 0 1.387-.775 1.835-2.325.163-.571.469-2.284.918-5.139"/><path d="M304.11 500.848c0-1.631-.551-2.61-1.652-2.937-.612-.122-.918-.265-.918-.428 0-.204.367-.306 1.101-.306h5.506v22.882c0 1.632.571 2.61 1.713 2.937.571.163.857.326.857.489 0 .163-.367.245-1.101.245h-6.975c-.734 0-1.101-.082-1.101-.245 0-.204.306-.367.918-.489 1.101-.326 1.652-1.305 1.652-2.937v-19.211m5.078 14.316c0 .408.285.714.857.918.571.163.857.53.857 1.101 0 .408-.224.612-.673.612-1.101 0-1.652-.795-1.652-2.386 0-1.264.428-3.141 1.285-5.629l2.141-6.118c.571-1.631.857-2.916.857-3.854 0-1.183-.388-1.856-1.162-2.019-.571-.122-.857-.285-.857-.489 0-.082.367-.122 1.101-.122h6.179c.734 0 1.101.041 1.101.122 0 .204-.306.388-.918.551-.612.122-1.183.673-1.713 1.652-1.101 2.284-2.203 4.548-3.304 6.791l3.426 13.766c.245 1.101.408 1.713.489 1.835.245.571.653.938 1.224 1.101.571.122.857.286.857.489 0 .163-.367.245-1.101.245h-5.629c-.734 0-1.101-.082-1.101-.245 0-.204.286-.367.857-.489.897-.163 1.142-1.04.734-2.631l-2.141-8.871c-.082-.367-.184-.551-.306-.551-.204 0-.489.612-.857 1.835-.367 1.183-.551 1.978-.551 2.386"/><path d="M334.006 509.903c-5.425-.326-8.137.857-8.137 3.549 0 .612.143.918.428.918.082 0 .224-.102.428-.306.245-.245.489-.367.734-.367.612 0 .918.367.918 1.101 0 .367-.163.734-.489 1.101-.286.326-.653.489-1.101.489-.489 0-.979-.265-1.468-.795-.449-.53-.673-1.203-.673-2.019 0-1.713.979-3.243 2.937-4.589 1.999-1.346 2.998-2.957 2.998-4.833 0-2.529-.918-3.793-2.753-3.793-2.57 0-3.854 4.058-3.854 12.175 0 2.855.265 4.854.795 5.996.571 1.101 1.468 1.652 2.692 1.652.734 0 1.509-.449 2.325-1.346.857-.938 1.285-1.897 1.285-2.876 0-1.183-.469-2.427-1.407-3.732.326-.082.653-.122.979-.122 2.488 0 3.732 1.53 3.732 4.589 0 2.08-.632 3.814-1.897 5.2-1.387 1.468-3.181 2.203-5.384 2.203-4.446 0-6.669-4.058-6.669-12.175 0-9.993 2.447-14.989 7.342-14.989 4.242 0 6.363 3.345 6.363 10.034 0 .897-.041 1.876-.122 2.937"/><path d="M341.738 533.213c0 1.591.571 2.549 1.713 2.876.571.245.857.408.857.489 0 .122-.367.184-1.101.184h-6.975c-.693 0-1.04-.061-1.04-.184 0-.163.286-.326.857-.489 1.101-.326 1.652-1.285 1.652-2.876v-32.365c0-1.591-.551-2.57-1.652-2.937-.571-.082-.857-.224-.857-.428 0-.163.347-.245 1.04-.245h4.099v2.692c.734-1.958 2.08-2.937 4.038-2.937 2.121 0 3.834.979 5.139 2.937 1.346 1.917 2.019 4.589 2.019 8.015 0 2.325-.326 4.67-.979 7.036-.775 2.855-1.876 5.037-3.304 6.546-2.529 2.651-3.793 4.323-3.793 5.017 0 .326.306.612.918.857.653.245.979.632.979 1.162 0 .816-.469 1.224-1.407 1.224-.489 0-.918-.326-1.285-.979-.326-.612-.489-1.305-.489-2.08 0-1.264.714-2.937 2.141-5.017l.612-.857c1.876-2.733 2.814-7.056 2.814-12.97 0-4.935-1.04-7.403-3.12-7.403-1.224 0-2.039.612-2.447 1.835-.286.857-.428 2.386-.428 4.589v26.308"/><path d="M118.383 539.178c0-.675-.228-1.08-.684-1.215-.253-.051-.38-.11-.38-.177 0-.084.152-.127.456-.127h2.278v9.468c0 .675.236 1.08.709 1.215.236.068.354.135.354.203s-.152.101-.456.101h-2.886c-.304 0-.456-.034-.456-.101 0-.084.127-.152.38-.203.456-.135.684-.54.684-1.215v-7.949m2.101 5.924c0 .169.118.295.354.38.236.068.354.219.354.456 0 .169-.093.253-.278.253-.456 0-.684-.329-.684-.987 0-.523.177-1.3.532-2.329l.886-2.532c.236-.675.354-1.207.354-1.595 0-.489-.16-.768-.481-.835-.236-.051-.354-.118-.354-.203 0-.034.152-.051.456-.051h2.557c.304 0 .456.017.456.051 0 .084-.127.16-.38.228-.253.051-.489.278-.709.684-.456.945-.911 1.882-1.367 2.81l1.418 5.696c.101.456.169.709.203.759.101.236.27.388.506.456.236.051.354.118.354.203 0 .068-.152.101-.456.101h-2.329c-.304 0-.456-.034-.456-.101 0-.084.118-.152.354-.203.371-.068.473-.43.304-1.089l-.886-3.671c-.034-.152-.076-.228-.127-.228-.084 0-.203.253-.354.759-.152.489-.228.819-.228.987"/><path d="M130.109 539.912c-.051-.388-.152-.684-.304-.886-.135-.203-.38-.304-.734-.304-.439 0-.776.27-1.013.81-.219.54-.329 1.249-.329 2.127 0 .456.034 1.013.101 1.671.084.641.177 1.283.278 1.924.101.641.186 1.224.253 1.747.084.523.127.895.127 1.114 0 1.806-.464 2.709-1.392 2.709-.422 0-.633-.169-.633-.506 0-.338.16-.506.481-.506l.177.025.228.051c.287 0 .43-.354.43-1.063 0-.051-.042-.219-.127-.506-.068-.304-.16-.667-.278-1.089-.118-.439-.253-.92-.405-1.443-.135-.54-.262-1.089-.38-1.646-.118-.557-.219-1.097-.304-1.62-.068-.54-.101-1.021-.101-1.443 0-2.278.768-3.418 2.304-3.418l4.076-.101v.152c-.641.034-.962.329-.962.886v9.038c0 .236.051.413.152.532.101.118.211.211.329.278.118.051.228.084.329.101l.152.051v.101h-3.418v-.127l.152-.051c.101-.017.203-.051.304-.101.118-.051.228-.135.329-.253s.152-.295.152-.532l.025-7.722"/><path d="M139.952 547.128c0 .692.236 1.105.709 1.241.051.017.118.068.203.152.101.084.152.143.152.177 0-.034-.152-.051-.456-.051l-2.051.051c-.017 0-.025-.338-.025-1.013-.641.726-1.291 1.089-1.949 1.089-.591 0-1.097-.236-1.519-.709-.422-.489-.633-1.173-.633-2.051 0-.793.262-1.494.785-2.101.186-.219.692-.658 1.519-1.316.591-.473.928-.903 1.013-1.291-.034-.051-.177-.143-.43-.278-.186-.101-.278-.253-.278-.456 0-.304.169-.456.506-.456.473 0 .709.422.709 1.266 0 .523-.371 1.232-1.114 2.127-.743.878-1.114 1.705-1.114 2.481 0 .338.093.633.278.886.186.253.43.38.734.38.945 0 1.418-1.004 1.418-3.013v-2.886l.025-.304.025-.456c0-1.114-.371-1.671-1.114-1.671-.27 0-.523.135-.759.405-.236.253-.354.549-.354.886 0 .405.211.911.633 1.519-.118.135-.278.203-.481.203-.439 0-.793-.194-1.063-.582-.253-.405-.38-.886-.38-1.443 0-.726.228-1.3.684-1.722.456-.439 1.046-.658 1.772-.658 1.705 0 2.557.996 2.557 2.987v6.608"/><path d="M146.098 541.71c.371-.523.557-1.004.557-1.443 0-.321-.101-.616-.304-.886-.203-.287-.447-.43-.734-.43-.574 0-.987.262-1.241.785-.287.608-.43 1.662-.43 3.165 0 1.705.118 2.861.354 3.468.219.523.608.785 1.165.785.844 0 1.266-.574 1.266-1.722 0-.709-.278-1.122-.835-1.241.084-.219.262-.329.532-.329.456 0 .844.203 1.165.608.321.388.481.827.481 1.316 0 1.992-.869 2.987-2.608 2.987-2.008 0-3.013-1.857-3.013-5.57 0-3.781 1.004-5.671 3.013-5.671.709 0 1.291.219 1.747.658.473.439.709 1.046.709 1.823 0 .574-.118 1.013-.354 1.316-.186.219-.422.371-.709.456-.287.084-.54.059-.759-.076"/><path d="M153.379 541.71c.371-.523.557-1.004.557-1.443 0-.321-.101-.616-.304-.886-.203-.287-.447-.43-.734-.43-.574 0-.987.262-1.241.785-.287.608-.43 1.662-.43 3.165 0 1.705.118 2.861.354 3.468.219.523.608.785 1.165.785.844 0 1.266-.574 1.266-1.722 0-.709-.278-1.122-.835-1.241.084-.219.262-.329.532-.329.456 0 .844.203 1.165.608.321.388.481.827.481 1.316 0 1.992-.869 2.987-2.608 2.987-2.008 0-3.013-1.857-3.013-5.57 0-3.781 1.004-5.671 3.013-5.671.709 0 1.291.219 1.747.658.473.439.709 1.046.709 1.823 0 .574-.118 1.013-.354 1.316-.186.219-.422.371-.709.456-.287.084-.54.059-.759-.076"/><path d="M160.939 539.178c0-.675-.236-1.08-.709-1.215-.236-.068-.354-.135-.354-.203 0-.051.152-.076.456-.076h2.886c.304 0 .456.025.456.076 0 .068-.127.135-.38.203-.473.135-.709.54-.709 1.215v8.025c0 .675.236 1.072.709 1.19.253.084.38.152.38.203 0 .068-.152.101-.456.101h-2.278v-.582c-.456.456-.996.684-1.62.684-1.536 0-2.304-1.139-2.304-3.418 0-1.418.262-2.979.785-4.684.54-1.722.81-2.743.81-3.063 0-.709-.143-1.063-.43-1.063l-.228.051-.177.025c-.321 0-.481-.169-.481-.506 0-.338.211-.506.633-.506.928 0 1.392.903 1.392 2.709 0 .54-.127 1.494-.38 2.861-.253 1.367-.38 2.565-.38 3.595 0 1.755.439 2.633 1.316 2.633.709 0 1.063-.793 1.063-2.38v-5.873"/><path d="M169.63 544.824c-.236.169-.489.304-.759.405-.27.101-.565.152-.886.152-1.502 0-2.253-.835-2.253-2.506 0-.473.084-.979.253-1.519.169-.557.354-1.097.557-1.62l.557-1.494c.169-.473.253-.852.253-1.139 0-.523-.143-.785-.43-.785l-.228.025-.177.025c-.304 0-.456-.118-.456-.354 0-.253.203-.38.608-.38.911 0 1.367.667 1.367 2 0 .152-.042.422-.127.81-.068.388-.152.819-.253 1.291l-.253 1.443c-.068.473-.101.878-.101 1.215 0 1.283.43 1.924 1.291 1.924.692 0 1.038-.582 1.038-1.747v-3.392c0-.304-.059-.54-.177-.709-.101-.169-.219-.295-.354-.38-.135-.101-.262-.169-.38-.203-.101-.051-.152-.093-.152-.127 0-.051.152-.076.456-.076h2.886c.304 0 .456.025.456.076 0 .034-.059.076-.177.127-.101.034-.228.101-.38.203-.135.084-.262.211-.38.38-.101.169-.152.405-.152.709v8.025c0 .304.051.54.152.709.118.169.245.304.38.405.152.084.278.143.38.177.118.034.177.068.177.101 0 .068-.152.101-.456.101h-2.253l-.025-3.873"/><path d="M179.942 542.925c-2.245-.135-3.367.354-3.367 1.468 0 .253.059.38.177.38.034 0 .093-.042.177-.127.101-.101.203-.152.304-.152.253 0 .38.152.38.456 0 .152-.068.304-.203.456-.118.135-.27.203-.456.203-.203 0-.405-.11-.608-.329-.186-.219-.278-.498-.278-.835 0-.709.405-1.342 1.215-1.899.827-.557 1.241-1.224 1.241-2 0-1.046-.38-1.57-1.139-1.57-1.063 0-1.595 1.679-1.595 5.038 0 1.181.11 2.008.329 2.481.236.456.608.684 1.114.684.304 0 .624-.186.962-.557.354-.388.532-.785.532-1.19 0-.489-.194-1.004-.582-1.544.135-.034.27-.051.405-.051 1.03 0 1.544.633 1.544 1.899 0 .861-.262 1.578-.785 2.152-.574.608-1.316.911-2.228.911-1.84 0-2.759-1.679-2.759-5.038 0-4.135 1.013-6.203 3.038-6.203 1.755 0 2.633 1.384 2.633 4.152 0 .371-.017.776-.051 1.215"/><path d="M185.458 541.71c.371-.523.557-1.004.557-1.443 0-.321-.101-.616-.304-.886-.203-.287-.447-.43-.734-.43-.574 0-.987.262-1.24.785-.287.608-.43 1.662-.43 3.165 0 1.705.118 2.861.354 3.468.219.523.608.785 1.165.785.844 0 1.266-.574 1.266-1.722 0-.709-.278-1.122-.835-1.241.084-.219.262-.329.532-.329.456 0 .844.203 1.165.608.321.388.481.827.481 1.316 0 1.992-.869 2.987-2.608 2.987-2.008 0-3.013-1.857-3.013-5.57 0-3.781 1.004-5.671 3.013-5.671.709 0 1.291.219 1.747.658.473.439.709 1.046.709 1.823 0 .574-.118 1.013-.354 1.316-.186.219-.422.371-.709.456-.287.084-.54.059-.759-.076"/><path d="M190.055 539.178c0-.675-.228-1.08-.684-1.215-.253-.051-.38-.11-.38-.177 0-.084.152-.127.456-.127h2.278v9.468c0 .675.236 1.08.709 1.215.236.068.354.135.354.203s-.152.101-.456.101h-2.886c-.304 0-.456-.034-.456-.101 0-.084.127-.152.38-.203.456-.135.684-.54.684-1.215v-7.949m2.101 5.924c0 .169.118.295.354.38.236.068.354.219.354.456 0 .169-.093.253-.278.253-.456 0-.684-.329-.684-.987 0-.523.177-1.3.532-2.329l.886-2.532c.236-.675.354-1.207.354-1.595 0-.489-.16-.768-.481-.835-.236-.051-.354-.118-.354-.203 0-.034.152-.051.456-.051h2.557c.304 0 .456.017.456.051 0 .084-.127.16-.38.228-.253.051-.489.278-.709.684-.456.945-.911 1.882-1.367 2.81l1.418 5.696c.101.456.169.709.203.759.101.236.27.388.506.456.236.051.354.118.354.203 0 .068-.152.101-.456.101h-2.329c-.304 0-.456-.034-.456-.101 0-.084.118-.152.354-.203.371-.068.473-.43.304-1.089l-.886-3.671c-.034-.152-.076-.228-.127-.228-.084 0-.203.253-.354.759-.152.489-.228.819-.228.987"/><path d="M201.705 539.178c0-.675-.236-1.08-.709-1.215-.236-.068-.354-.135-.354-.203 0-.051.152-.076.456-.076h2.886c.304 0 .456.025.456.076 0 .068-.127.135-.38.203-.473.135-.709.54-.709 1.215v8.025c0 .675.236 1.072.709 1.19.253.084.38.152.38.203 0 .068-.152.101-.456.101h-2.278v-.582c-.456.456-.996.684-1.62.684-1.536 0-2.304-1.139-2.304-3.418 0-1.418.262-2.979.785-4.684.54-1.722.81-2.743.81-3.063 0-.709-.143-1.063-.43-1.063l-.228.051-.177.025c-.321 0-.481-.169-.481-.506 0-.338.211-.506.633-.506.928 0 1.392.903 1.392 2.709 0 .54-.127 1.494-.38 2.861-.253 1.367-.38 2.565-.38 3.595 0 1.755.439 2.633 1.316 2.633.709 0 1.063-.793 1.063-2.38v-5.873"/><path d="M212.067 542.925c-2.245-.135-3.367.354-3.367 1.468 0 .253.059.38.177.38.034 0 .093-.042.177-.127.101-.101.203-.152.304-.152.253 0 .38.152.38.456 0 .152-.068.304-.203.456-.118.135-.27.203-.456.203-.203 0-.405-.11-.608-.329-.186-.219-.278-.498-.278-.835 0-.709.405-1.342 1.215-1.899.827-.557 1.241-1.224 1.241-2 0-1.046-.38-1.57-1.139-1.57-1.063 0-1.595 1.679-1.595 5.038 0 1.181.11 2.008.329 2.481.236.456.608.684 1.114.684.304 0 .624-.186.962-.557.354-.388.532-.785.532-1.19 0-.489-.194-1.004-.582-1.544.135-.034.27-.051.405-.051 1.03 0 1.544.633 1.544 1.899 0 .861-.262 1.578-.785 2.152-.574.608-1.316.911-2.228.911-1.84 0-2.759-1.679-2.759-5.038 0-4.135 1.013-6.203 3.038-6.203 1.755 0 2.633 1.384 2.633 4.152 0 .371-.017.776-.051 1.215"/><path d="M222.34 547.178c0 .304.051.54.152.709.118.169.245.304.38.405l.354.203c.118.034.177.068.177.101 0 .051-.152.076-.456.076h-2.861c-.304 0-.456-.025-.456-.076s.051-.093.152-.127c.118-.034.236-.093.354-.177.135-.101.253-.236.354-.405.118-.169.177-.405.177-.709v-8.025c0-.287-.059-.515-.177-.684-.101-.169-.219-.295-.354-.38-.118-.101-.236-.169-.354-.203-.101-.051-.152-.093-.152-.127 0-.068.152-.101.456-.101h6.203c-.321 1.08-.565 1.966-.734 2.658-.152.692-.228 1.232-.228 1.62 0 .253.025.422.076.506.051.084.101.143.152.177l.152.127c.051.034.076.143.076.329 0 .203-.118.304-.354.304-.473 0-.709-.532-.709-1.595v-.354c0-.962-.135-1.705-.405-2.228-.253-.523-.523-.785-.81-.785-.084 0-.194.017-.329.051-.118.034-.245.118-.38.253-.118.118-.228.321-.329.608-.084.27-.127.641-.127 1.114v6.734"/><path d="M232.283 539.178c0-.675-.236-1.08-.709-1.215-.236-.068-.354-.135-.354-.203 0-.051.152-.076.456-.076h2.886c.304 0 .456.025.456.076 0 .068-.127.135-.38.203-.473.135-.709.54-.709 1.215v8.025c0 .675.236 1.072.709 1.19.253.084.38.152.38.203 0 .068-.152.101-.456.101h-2.278v-.582c-.456.456-.996.684-1.62.684-1.536 0-2.304-1.139-2.304-3.418 0-1.418.262-2.979.785-4.684.54-1.722.81-2.743.81-3.063 0-.709-.143-1.063-.43-1.063l-.228.051-.177.025c-.321 0-.481-.169-.481-.506 0-.338.211-.506.633-.506.928 0 1.392.903 1.392 2.709 0 .54-.127 1.494-.38 2.861-.253 1.367-.38 2.565-.38 3.595 0 1.755.439 2.633 1.316 2.633.709 0 1.063-.793 1.063-2.38v-5.873"/><path d="M237.354 537.659h2v.937c.456-.692 1.013-1.038 1.671-1.038.827 0 1.409.371 1.747 1.114.591-.743 1.257-1.114 2-1.114 1.536 0 2.304 1.139 2.304 3.418 0 .422-.042.895-.127 1.418-.068.523-.169 1.063-.304 1.62-.118.557-.245 1.105-.38 1.646-.135.54-.27 1.03-.405 1.468l-.304 1.063c-.068.287-.101.464-.101.532 0 .709.143 1.063.43 1.063l.203-.051.203-.025c.338 0 .506.169.506.506 0 .338-.211.506-.633.506-.928 0-1.392-.903-1.392-2.709 0-.219.034-.591.101-1.114.084-.523.169-1.105.253-1.747.101-.641.186-1.283.253-1.924.084-.658.127-1.215.127-1.671 0-.962-.11-1.62-.329-1.975-.203-.354-.523-.532-.962-.532-.709 0-1.063.633-1.063 1.899v6.228c0 .422.017.7.051.835.017.101.068.186.152.253l.278.152.228.101c.084.017.127.042.127.076 0 .051-.152.076-.456.076h-2.43c-.304 0-.456-.025-.456-.076s.034-.093.101-.127l.253-.101.278-.127c.084-.051.143-.127.177-.228.017-.068.025-.346.025-.835v-7.114c0-.675-.346-1.013-1.038-1.013-.692 0-1.038.405-1.038 1.215v6.911c0 .422.017.7.051.835.017.101.068.186.152.253l.278.152.228.101c.084.017.127.042.127.076 0 .051-.152.076-.456.076h-2.43c-.304 0-.456-.025-.456-.076s.034-.093.101-.127l.253-.101.278-.127c.084-.051.143-.127.177-.228.034-.135.051-.413.051-.835v-8.025c0-.405-.017-.675-.051-.81-.034-.101-.093-.177-.177-.228l-.278-.127c-.084-.051-.169-.084-.253-.101-.068-.034-.101-.076-.101-.127 0-.068.152-.101.456-.101"/><path d="M254.452 547.128c0 .692.236 1.105.709 1.241.051.017.118.068.203.152.101.084.152.143.152.177 0-.034-.152-.051-.456-.051l-2.051.051c-.017 0-.025-.338-.025-1.013-.641.726-1.291 1.089-1.949 1.089-.591 0-1.097-.236-1.519-.709-.422-.489-.633-1.173-.633-2.051 0-.793.262-1.494.785-2.101.186-.219.692-.658 1.519-1.316.591-.473.928-.903 1.013-1.291-.034-.051-.177-.143-.43-.278-.186-.101-.278-.253-.278-.456 0-.304.169-.456.506-.456.473 0 .709.422.709 1.266 0 .523-.371 1.232-1.114 2.127-.743.878-1.114 1.705-1.114 2.481 0 .338.093.633.278.886.186.253.43.38.734.38.945 0 1.418-1.004 1.418-3.013v-2.886l.025-.304.025-.456c0-1.114-.371-1.671-1.114-1.671-.27 0-.523.135-.759.405-.236.253-.354.549-.354.886 0 .405.211.911.633 1.519-.118.135-.278.203-.481.203-.439 0-.793-.194-1.063-.582-.253-.405-.38-.886-.38-1.443 0-.726.228-1.3.684-1.722.456-.439 1.046-.658 1.772-.658 1.705 0 2.557.996 2.557 2.987v6.608"/><path d="M259.282 552.571c0 .658.236 1.055.709 1.19.236.101.354.169.354.203 0 .051-.152.076-.456.076h-2.886c-.287 0-.43-.025-.43-.076 0-.068.118-.135.354-.203.456-.135.684-.532.684-1.19v-13.392c0-.658-.228-1.063-.684-1.215-.236-.034-.354-.093-.354-.177 0-.068.143-.101.43-.101h1.696v1.114c.304-.81.861-1.215 1.671-1.215.878 0 1.587.405 2.127 1.215.557.793.835 1.899.835 3.316 0 .962-.135 1.933-.405 2.911-.321 1.181-.776 2.084-1.367 2.709-1.046 1.097-1.57 1.789-1.57 2.076 0 .135.127.253.38.354.27.101.405.262.405.481 0 .338-.194.506-.582.506-.203 0-.38-.135-.532-.405-.135-.253-.203-.54-.203-.861 0-.523.295-1.215.886-2.076l.253-.354c.776-1.131 1.165-2.92 1.165-5.367 0-2.042-.43-3.063-1.291-3.063-.506 0-.844.253-1.013.759-.118.354-.177.987-.177 1.899v10.886"/><path d="M273.027 539.28l-.051 8c0 .658-.228 1.055-.684 1.19-.068.017-.152.068-.253.152l-.127.127c0 .017.152.025.456.025h2.886c.118 0 .236.017.354.051h.127c0-.034-.059-.093-.177-.177-.101-.101-.177-.16-.228-.177-.473-.118-.709-.515-.709-1.19v-8.025c.034-.658.287-1.046.759-1.165.051-.017.127-.068.228-.152.118-.101.177-.169.177-.203h-.127c-.118.034-.236.051-.354.051h-2.886c-.304 0-.456.008-.456.025l.127.152c.101.068.186.11.253.127.456.135.684.532.684 1.19m-4.608-1.595c.118 0 .236-.017.354-.051h.127c0 .034-.059.101-.177.203-.101.084-.177.135-.228.152-.473.118-.709.506-.709 1.165l-.051 1.443.025.456.025.304v4.2780000000000005c0 .405.042.759.127 1.063.084.304.219.532.405.684.203.152.498.211.886.177.152-.017.287-.076.405-.177.135-.101.245-.228.329-.38.084-.152.152-.312.203-.481.051-.186.076-.363.076-.532 0-.759-.371-1.586-1.114-2.481-.743-.895-1.114-1.603-1.114-2.127 0-.844.236-1.266.709-1.266.338 0 .506.152.506.456 0 .101-.034.194-.101.278-.068.084-.152.16-.253.228l-.253.152-.101.076c.084.388.422.819 1.013 1.291.506.405.911.751 1.215 1.038.304.287.532.549.684.785.169.236.278.481.329.734.051.236.076.523.076.861 0 .878-.211 1.544-.633 2-.422.456-.928.684-1.519.684l-1.949-.025-2.076-.025c-.304 0-.456.017-.456.051 0-.084.051-.152.152-.203.118-.068.245-.152.38-.253s.253-.236.354-.405c.118-.169.177-.405.177-.709l-.076-7.949c-.051-.675-.304-1.08-.759-1.215-.253-.034-.38-.101-.38-.203 0-.051.152-.076.456-.076h2.937"/></g></svg>